<?xml version="1.0" encoding="UTF-8"?>
<svg width="268px" height="16px" viewBox="0 0 268 16" version="1.1" xmlns="http://www.w3.org/2000/svg" xmlns:xlink="http://www.w3.org/1999/xlink">
    <!-- Generator: Sketch 60.1 (88133) - https://sketch.com -->
    <title>bg_blue</title>
    <desc>Created with Sketch.</desc>
    <g id="生产看板" stroke="none" stroke-width="1" fill="none" fill-rule="evenodd">
        <g transform="translate(-428.000000, -57.000000)" fill="#6188EA" id="bg_blue">
            <g transform="translate(376.000000, 57.000000)">
                <polygon id="矩形" points="260 -2.66453526e-14 289.998689 -2.66453526e-14 319.483215 15.0040741 289.484526 15.0040741"></polygon>
                <polygon id="矩形备份" fill-opacity="0.8" points="208 -2.66453526e-14 237.998689 -2.66453526e-14 267.483215 15.0040741 237.484526 15.0040741"></polygon>
                <polygon id="矩形备份-2" fill-opacity="0.6" points="156 -2.66453526e-14 185.998689 -2.66453526e-14 215.483215 15.0040741 185.484526 15.0040741"></polygon>
                <polygon id="矩形备份-3" fill-opacity="0.4" points="104 -2.66453526e-14 133.998689 -2.66453526e-14 163.483215 15.0040741 133.484526 15.0040741"></polygon>
                <polygon id="矩形备份-4" fill-opacity="0.2" points="52 -2.66453526e-14 81.9986888 -2.66453526e-14 111.483215 15.0040741 81.4845257 15.0040741"></polygon>
                <polygon id="矩形备份-5" fill-opacity="0" points="0 -2.66453526e-14 29.9986888 -2.66453526e-14 59.4832145 15.0040741 29.4845257 15.0040741"></polygon>
            </g>
        </g>
    </g>
</svg>