<svg xmlns="http://www.w3.org/2000/svg" viewBox="0 0 569.24 69.09"><defs><style>.cls-1{fill:#ffffff;}.cls-1,.cls-2{fill-rule:evenodd;}.cls-2{fill:#ffffff;}</style></defs><title>奥荣logo</title><g id="图层_2" data-name="图层 2"><g id="_" data-name="ͼ"><path class="cls-1" d="M113.59,4.11h28.94A25.94,25.94,0,0,1,168.4,30V41.67a25.94,25.94,0,0,1-25.87,25.86H113.59A25.94,25.94,0,0,1,87.72,41.67V30A25.94,25.94,0,0,1,113.59,4.11ZM2.61,67.62h25a7.93,7.93,0,0,0,6-2.68l23-31.28c1-1.22,1.74-1.28,1.74.34V64.42c0,2.74.76,3.26,2.88,3.26H81.66c.88,0,1.25-.18,1.25-1.28V6.55A2.64,2.64,0,0,0,80.2,3.88H54.49c-5.47,0-9.28,1.48-12.73,5.68L.73,63.19a2.63,2.63,0,0,0,1.88,4.43ZM280.12,4h23.32c18.32,0,28.71,12.94,28.71,28.74V39c0,15.8-10.21,28.73-28.71,28.73H280.12c-18.75,0-28.71-12.93-28.71-28.73V32.7C251.41,16.89,261.71,4,280.12,4Zm17.4,9.35c-11.69,0-17.63,8.07-17.63,18v9.13c0,9.87,5.94,18,17.63,18h1.78c11.7,0,17.63-8.08,17.63-18V31.26c0-9.87-5.72-18-17.63-18ZM218.23,67.68l26.59,0c.69,0,1.34,0,.68-1.41L230.57,40.71c8-1.15,16.66-7.15,16.14-19.38-.51-12-9.67-17.55-20.3-17.55H176.29c-2.32,0-3.28.81-3.28,3.13V64.74c0,2.46,1.08,2.9,3.06,2.9H197.4c1.23,0,1.5-.26,1.5-1.62V37.77l15.52,27.94c.88,2,1.93,2,3.81,2Zm-1.13-54h0c13.69,0,15.36,17,1.2,17.37H198.9V13.71ZM384.86,7V34.24L366.72,7.65c-2.74-4.06-4.5-3.73-9.43-3.73H340c-2.73,0-3.18,1-3.18,3.27v57c0,2.46.66,3.52,3.05,3.52h20.5c1.34,0,1.46-.09,1.46-1.77V37.35l19.1,28c1.13,2,2.56,2.35,5.58,2.35H400a2.22,2.22,0,0,0,1.73-2.14V6.12c0-.56-.91-2.2-1.51-2.2H387c-.91,0-2.18,1.69-2.18,3ZM132.15,13.2A16.16,16.16,0,0,0,116,29.31v13a16.16,16.16,0,0,0,16.11,16.11H137a16.16,16.16,0,0,0,16.11-16.11v-13A16.16,16.16,0,0,0,137,13.2Z"/><path class="cls-2" d="M470,29.11a53,53,0,0,0,4.3,11.16c.56,1,.1,1.22-.67,1.22h-7.23c-.84,0-1-.07-1.31-.67a79.09,79.09,0,0,1-3.44-9.56V41c0,.65-.27.87-.8.87h-8.41c-.63,0-.92-.23-.92-.92V31.26a77.4,77.4,0,0,1-3.45,9.56c-.28.6-.46.67-1.31.67h-7.22c-.77,0-1.23-.2-.68-1.22a52.44,52.44,0,0,0,4.3-11.16h-4.81c-.55,0-.83,0-.83-.82V23.74c0-.68.12-.89.94-.89h5a50.8,50.8,0,0,0-4.15-8.11c-.67-1.12-.37-1.3.7-1.3h7.2c.68,0,1,.16,1.21.57a65.08,65.08,0,0,1,3.13,6.37V14.27c0-.74.15-1.33,1.41-1.33H460a1.45,1.45,0,0,1,1.64,1.62v5.82A65.06,65.06,0,0,1,464.8,14c.23-.41.53-.57,1.22-.57h7.2c1.06,0,1.37.18.7,1.3a50.8,50.8,0,0,0-4.15,8.11h4.39c1.15,0,1.51.49,1.51,1.5v3.89c0,.53-.2.87-.77.87Zm74.2-11.41V13.23H526V17.7a1.71,1.71,0,0,1-1.7,1.7h-8a1.7,1.7,0,0,1-1.7-1.7V13.23H502.87a1.4,1.4,0,0,1-1.4-1.39V7.56a1.4,1.4,0,0,1,1.4-1.39h11.71V1.69A1.7,1.7,0,0,1,516.28,0h8A1.7,1.7,0,0,1,526,1.69V6.17h18.26V1.69A1.7,1.7,0,0,1,545.92,0h8a1.69,1.69,0,0,1,1.69,1.69V6.17h11.72a1.39,1.39,0,0,1,1.39,1.39v4.28a1.39,1.39,0,0,1-1.39,1.39H555.61V17.7a1.7,1.7,0,0,1-1.69,1.7h-8a1.7,1.7,0,0,1-1.69-1.7ZM424.55,42.18c0,1.49.4,1.79,2,1.79h6.9c.81,0,1.21-.33,1.21-1.31l0-32.09h43.85V42.44c0,1.22.3,1.53,1.53,1.53h6.32c1.68,0,2.29-.24,2.29-2.45V9.14c0-3.79-1.72-5.43-6.05-5.43h-33l.85-2c.46-1.27.22-1.66-1.2-1.66h-8.87c-1.3,0-1.75.08-2.25,1.4l-.92,2.31h-6.9c-4.47,0-5.74,1.55-5.74,6.13V42.18ZM423,52.57v-4.4c0-1.15,0-1.43,1.29-1.43H451V44.63c0-.88.39-.9.91-.9h8.67c1.55,0,2,.4,2,1.91v1.1h25.78c1.43,0,1.86.39,1.86,1.74v4c0,1.2-.47,1.37-1.39,1.37H464.66c2.5,4.23,10.1,7.25,24.08,9.06,1.38.18,1.45.55,1.45,1.46v3.48c0,.85-.32,1.19-1.31,1.11-15.18-1.08-25.4-3.58-32-9-6.56,5.59-17,8.1-32.47,9-1.27.07-1.42-.11-1.42-1V64.42c0-.81,0-1.28,1-1.4,13.7-1.62,21.55-4.66,24.85-9.13H424.43c-.78,0-1.4,0-1.4-1.32ZM543.24,42.41a38,38,0,0,0,24,26.41c1.79.62,1.85.12,1.85-.91V64.47c0-.59.08-1-.74-1.48-7.88-4.61-12.39-13.62-13.8-20.58h13.26c.92,0,1.28-.26,1.28-1.11V36.75c0-1.47-.82-1.77-2-1.77h-25.8V33.26c0-1.4-.61-2-2-2h-7.71c-1.47,0-1.72.29-1.72,1.71v2H503.35c-1,0-1.24.24-1.24,1.3v4.54c0,1.51.38,1.59,1.28,1.59h13.2c-1.41,7-5.93,16-13.8,20.58a1.31,1.31,0,0,0-.75,1.48v3.44c0,1,.07,1.53,1.86.91a38,38,0,0,0,24-26.41h2V67.89c0,1,.3,1.2,1.19,1.2h8.43c1.46,0,1.79-.32,1.79-1.69v-25ZM502,30.67V25.76c0-2.66.65-4,3.66-4h59c4.79,0,4.61,2.47,4.61,5V31c0,1.1-.33,1.5-1.53,1.5h-7.6c-1.41,0-1.68-.5-1.68-1.6V29H512.79v2.2c0,.85-.33,1.38-1.82,1.38h-7.15C502.25,32.53,502,32.21,502,30.67Z"/></g></g></svg>
